<svg width="104" height="104" viewBox="0 0 104 104" fill="none" xmlns="http://www.w3.org/2000/svg">
<path d="M100 12.0113L51.625 12L51.4141 72.1752L99.7894 72.1865L100 12.0113Z" fill="#515151"/>
<path d="M94.6189 16.8818L46.3418 16.8491L46.9285 77.0907L95.2057 77.1234L94.6189 16.8818Z" fill="#E8E8C9"/>
<g clip-path="url(#clip0_3300_37166)">
<path d="M30.8906 32.0389V37.3674C30.8906 37.8388 31.275 38.2209 31.7491 38.2209H32.3703C32.8444 38.2209 33.2287 37.8388 33.2287 37.3674V32.0389C33.2287 31.5675 32.8444 31.1854 32.3703 31.1854H31.7491C31.275 31.1854 30.8906 31.5675 30.8906 32.0389Z" fill="#8E8E8E"/>
<path d="M55.083 32.0389V37.3674C55.083 37.8388 55.4673 38.2209 55.9415 38.2209H56.5626C57.0367 38.2209 57.4211 37.8388 57.4211 37.3674V32.0389C57.4211 31.5675 57.0367 31.1854 56.5626 31.1854H55.9415C55.4673 31.1854 55.083 31.5675 55.083 32.0389Z" fill="#8E8E8E"/>
<path d="M55.7183 33.411C55.7183 33.411 50.5531 32.7717 43.9989 32.7735C37.3143 32.7753 32.3574 33.411 32.3574 33.411C31.3179 33.411 30.4775 32.5736 30.4775 31.5418C30.4775 30.5082 31.3197 29.6726 32.3574 29.6726C32.3574 29.6726 36.6913 28.9829 43.6458 29.0189C50.3449 29.055 55.7183 29.6726 55.7183 29.6726C56.7578 29.6726 57.5982 30.51 57.5982 31.5418C57.5982 32.5754 56.756 33.411 55.7183 33.411V33.411Z" fill="#272727"/>
<path d="M5.98047 58.5464H81.2199V88.5235C81.2199 91.5379 78.7888 93.9835 75.7966 93.9835H11.4038C8.40969 93.9835 5.98047 91.5359 5.98047 88.5235V58.5464V58.5464Z" fill="#5C1E5B"/>
<path d="M75.3802 70.4819H11.7393C8.33846 70.4819 5.58203 67.9489 5.58203 64.8237V66.2459C5.58203 69.371 8.33846 72.6908 11.7393 72.6908H75.3802C78.781 72.6908 81.5374 69.371 81.5374 66.2459V64.8237C81.5374 67.9489 78.781 70.4819 75.3802 70.4819Z" fill="#431451"/>
<path d="M4 35.906H83.1994V64.2419C83.1994 67.617 80.3235 70.3588 76.7792 70.3588H10.4202C6.87777 70.3588 4 67.6187 4 64.2419V35.906Z" fill="#752157"/>
<path d="M28.7501 67.4019H25.2851C24.6652 67.4019 23.9258 68.1367 23.9258 69.0433V73.19C23.9258 74.0966 24.6652 74.8315 25.2851 74.8315H28.7501C29.3699 74.8315 30.1525 74.0966 30.1525 73.19V69.0433C30.1525 68.1367 29.3699 67.4019 28.7501 67.4019Z" fill="#8E8E8E"/>
<path d="M28.7501 66.1636H25.2851C24.6652 66.1636 23.9258 66.8985 23.9258 67.805V71.9518C23.9258 72.8583 24.4283 73.5932 25.0481 73.5932L28.7501 73.5932C29.3699 73.5932 30.1525 72.8583 30.1525 71.9518V67.805C30.1525 66.8985 29.3699 66.1636 28.7501 66.1636Z" fill="#E2E2E2"/>
<path d="M62.6542 67.4019H58.6721C58.0523 67.4019 57.5498 68.1367 57.5498 69.0433V73.19C57.5498 74.0966 58.0523 74.8315 58.6721 74.8315H62.6542C63.2741 74.8315 63.7766 74.0966 63.7766 73.19V69.0433C63.7766 68.1367 63.2741 67.4019 62.6542 67.4019Z" fill="#8E8E8E"/>
<path d="M62.6542 66.1636H58.6721C58.0523 66.1636 57.5498 66.8985 57.5498 67.805V71.9518C57.5498 72.8583 58.0523 73.5932 58.6721 73.5932H62.6542C63.2741 73.5932 63.7766 72.8583 63.7766 71.9518V67.805C63.7766 66.8985 63.2741 66.1636 62.6542 66.1636Z" fill="#E2E2E2"/>
</g>
<defs>
<clipPath id="clip0_3300_37166">
<rect width="79.1994" height="68.1841" fill="white" transform="translate(4 29.0154)"/>
</clipPath>
</defs>
</svg>
