<svg width="104" height="104" viewBox="0 0 104 104" fill="none" xmlns="http://www.w3.org/2000/svg">
<path d="M21.8676 71.7119H15.2263C13.5113 71.7119 12.1211 73.1426 12.1211 74.9075V83.4249C12.1211 85.1898 13.5113 86.6205 15.2263 86.6205H21.8676C23.5825 86.6205 24.9728 85.1898 24.9728 83.4249V74.9075C24.9728 73.1426 23.5825 71.7119 21.8676 71.7119Z" fill="#272727"/>
<path d="M90.5824 71.7122H83.9411C82.2262 71.7122 80.8359 73.1429 80.8359 74.9077V83.4252C80.8359 85.19 82.2262 86.6207 83.9411 86.6207H90.5824C92.2974 86.6207 93.6876 85.19 93.6876 83.4252V74.9077C93.6876 73.1429 92.2974 71.7122 90.5824 71.7122Z" fill="#272727"/>
<path d="M93.9576 66.1091C93.8481 60.0296 93.1376 51.3204 93.1376 51.3204C93.1376 49.3642 90.7867 42.2948 90.1193 40.2787C87.1491 31.307 78.4867 19.7172 75.393 19.0379C75.393 19.0379 70.2953 17.0001 53.737 17C37.1786 16.9999 30.2247 19.7173 30.2247 19.7173C30.2247 19.7173 24.0373 24.4724 17.2311 38.0587C17.2311 38.0587 11.9463 49.3642 11.9463 51.3204C11.9463 51.3204 11.2359 60.0296 11.1264 66.1091C10.975 74.5283 12.0162 78.5749 12.0162 78.5269H25.1917L31.1645 76.2519H74.8769L80.6097 78.5269H93.0701C93.0701 78.5749 94.109 74.5283 93.9599 66.1091H93.9576Z" fill="#006DE3"/>
<path d="M84.3227 37.5576C84.5297 38.1584 84.0753 38.7376 83.4399 38.7376H22.3953C21.9123 38.7376 21.5625 38.384 21.6924 37.9187C21.9451 37.013 22.6602 35.2263 24.6543 31.9449C27.1311 27.869 30.843 23.1134 33.3174 22.4407C33.3174 22.4407 38.4069 20.2932 53.1178 20.3962C67.8287 20.4991 73.5369 22.4407 73.5369 22.4407C76.013 23.1138 79.8983 29.2276 81.5787 31.9449C83.1072 34.4164 83.9198 36.3882 84.3227 37.5576Z" fill="#E2E2E2"/>
<g clip-path="url(#clip0_3204_2256)">
<path d="M71.0615 52.8882C71.0615 52.8882 87.373 48.2149 88.7858 48.2482C89.3861 48.2628 90.3956 49.2638 90.6801 49.8289C91.0153 50.4963 91.0328 55.7744 89.3627 56.083C86.4746 56.6189 76.2141 56.3166 76.2141 56.3166C76.2141 56.3166 75.0838 56.2019 73.5599 55.203C71.8644 54.0894 71.0615 52.8882 71.0615 52.8882Z" fill="#D9D9D9"/>
</g>
<g clip-path="url(#clip1_3204_2256)">
<path d="M33.9375 52.8882C33.9375 52.8882 17.6261 48.2149 16.2132 48.2482C15.6129 48.2628 14.6035 49.2638 14.3189 49.8289C13.9838 50.4963 13.9662 55.7744 15.6363 56.083C18.5245 56.6189 28.7849 56.3166 28.7849 56.3166C28.7849 56.3166 29.9152 56.2019 31.4391 55.203C33.1346 54.0894 33.9375 52.8882 33.9375 52.8882Z" fill="#D9D9D9"/>
</g>
<path d="M14.5455 40.3749C14.5455 40.3749 15.843 40.7249 15.9222 40.6338C17.0846 39.2697 14.5944 45.1982 14.5432 44.3999C14.5362 44.2728 5.72381 45.0783 3.86723 43.6831C1.95241 42.2471 3.55275 35.9375 5.34644 35.7721C8.4656 35.4845 13.015 34.9643 14.5455 40.3749Z" fill="#006DE3"/>
<path d="M90.487 39.9026C90.487 39.9026 89.1871 40.2407 89.1079 40.1472C87.9572 38.7735 90.3961 44.7235 90.452 43.9276C90.4614 43.8006 99.2644 44.69 101.135 43.3139C103.006 41.9379 101.519 35.5708 99.728 35.3886C96.6112 35.0698 92.0664 34.5064 90.487 39.9026Z" fill="#006DE3"/>
<path d="M36.748 53.6829H68.2535C69.8042 53.6829 71.0621 54.0346 71.0621 55.7692V56.8244C71.0621 61.2564 67.8447 65.9105 63.8825 65.9105H41.1171C37.1549 65.9105 33.9375 61.2564 33.9375 56.8244V55.7692C33.9375 54.0346 35.1954 53.6829 36.7461 53.6829H36.748Z" fill="#0051CA"/>
<defs>
<clipPath id="clip0_3204_2256">
<rect width="19.7998" height="8.15176" fill="white" transform="translate(71.0615 48.2483)"/>
</clipPath>
<clipPath id="clip1_3204_2256">
<rect width="19.7998" height="8.15176" fill="white" transform="matrix(-1 0 0 1 33.9375 48.2483)"/>
</clipPath>
</defs>
</svg>
