<svg width="104" height="104" viewBox="0 0 104 104" fill="none" xmlns="http://www.w3.org/2000/svg">
<path d="M76.2954 15.8854C75.9408 9.05251 71.4755 4 66.9786 4H35.7526C35.7526 4 28.0977 4 27.3762 15.8854L24.9082 46.8508L26.1003 59.5776H77.5713L79.7683 47.2039L76.2954 15.8854Z" fill="#004750"/>
<path d="M78.3927 80.5552H72.9473L77.2265 99.7785C78.8903 100.278 79.9508 99.7785 79.9508 99.7785L78.3958 80.5552H78.3927Z" fill="#6D6D6D"/>
<path d="M24.2783 99.7785C24.2783 99.7785 25.3357 100.278 27.0026 99.7785L31.2819 80.5552H25.8333L24.2783 99.7785Z" fill="#6D6D6D"/>
<path d="M21.7172 67.6001H81.4681C83.2843 67.6001 85.6929 67.6004 85.6929 67.6004V73.2857C85.6929 77.4922 81.3157 80.9066 77.0707 80.9066H26.1147C21.8696 80.9066 18.4238 77.4922 18.4238 73.2857V67.6001C18.4238 67.6001 19.8979 67.6001 21.7172 67.6001Z" fill="#007481"/>
<path d="M88.2552 43.0975L88.2677 42.9958C88.3206 39.566 87.1885 38.2686 85.136 37.19C81.9328 36.0683 77.8771 34.9465 77.8771 34.9465C74.226 46.6568 76.1297 56.1668 77.6349 58.4718L77.4452 59.5751L73.1255 59.5966C72.9762 59.4641 72.9233 59.4518 73.0011 59.5966L52.1397 59.6983L31.2784 59.5966C31.3562 59.4518 31.3033 59.461 31.154 59.5966L26.8343 59.5751L26.6446 58.4718C28.1498 56.1668 29.8576 46.7308 26.2065 35.0205C26.2065 35.0205 21.1525 35.9485 19.1435 37.19C16.6376 38.7367 15.9527 39.5629 16.0025 42.9958L16.0149 43.0975C16.0149 43.0975 16.0149 43.1129 16.018 43.1345V43.1561L16.0243 43.1777L18.5651 69.2699C18.5651 70.6813 19.7282 71.8338 21.1525 71.8338H28.2058H75.3833H83.1208C84.5451 71.8338 85.7082 70.6813 85.7082 69.2699L88.249 43.1777V43.1561L88.2552 43.1345C88.2552 43.1129 88.2584 43.0944 88.2584 43.0975H88.2552Z" fill="#007481"/>
<path d="M46.8878 24.5698C46.1631 24.5698 45.5723 25.1553 45.5723 25.8734C45.5723 26.5914 46.1631 27.1769 46.8878 27.1769C47.6124 27.1769 48.2033 26.5914 48.2033 25.8734C48.2033 25.1553 47.6124 24.5698 46.8878 24.5698Z" fill="#007481"/>
<path d="M57.3419 27.1769C58.0665 27.1769 58.6574 26.5914 58.6574 25.8734C58.6574 25.1553 58.0665 24.5698 57.3419 24.5698C56.6173 24.5698 56.0264 25.1553 56.0264 25.8734C56.0264 26.5914 56.6173 27.1769 57.3419 27.1769Z" fill="#007481"/>
<path d="M46.8878 33.741C46.1631 33.741 45.5723 34.3265 45.5723 35.0445C45.5723 35.7625 46.1631 36.348 46.8878 36.348C47.6124 36.348 48.2033 35.7625 48.2033 35.0445C48.2033 34.3265 47.6124 33.741 46.8878 33.741Z" fill="#007481"/>
<path d="M57.3419 33.741C56.6173 33.741 56.0264 34.3265 56.0264 35.0445C56.0264 35.7625 56.6173 36.348 57.3419 36.348C58.0665 36.348 58.6574 35.7625 58.6574 35.0445C58.6574 34.3265 58.0665 33.741 57.3419 33.741Z" fill="#007481"/>
<path d="M36.2084 51.0483H68.0197C73.5367 51.0483 78.0181 55.489 78.0181 60.9558C78.0181 62.2686 76.9452 63.3318 75.6204 63.3318H28.6077C27.2829 63.3318 26.21 62.2686 26.21 60.9558C26.21 55.489 30.6914 51.0483 36.2084 51.0483V51.0483Z" fill="#1A2142"/>
</svg>
