<svg width="104" height="104" viewBox="0 0 104 104" fill="none" xmlns="http://www.w3.org/2000/svg">
<path d="M81.8312 37.1073C89.7952 37.1073 96.2513 30.695 96.2513 22.785C96.2513 14.875 89.7952 8.46265 81.8312 8.46265C73.8672 8.46265 67.4111 14.875 67.4111 22.785C67.4111 30.695 73.8672 37.1073 81.8312 37.1073Z" fill="#FFE05A"/>
<path d="M81.8339 34.6575C88.4359 34.6575 93.7879 29.3418 93.7879 22.7846C93.7879 16.2273 88.4359 10.9116 81.8339 10.9116C75.2319 10.9116 69.8799 16.2273 69.8799 22.7846C69.8799 29.3418 75.2319 34.6575 81.8339 34.6575Z" fill="#FFCD00"/>
<path d="M81.8304 40.5702C82.3835 40.5702 82.8318 40.1249 82.8318 39.5756C82.8318 39.0263 82.3835 38.5811 81.8304 38.5811C81.2774 38.5811 80.8291 39.0263 80.8291 39.5756C80.8291 40.1249 81.2774 40.5702 81.8304 40.5702Z" fill="#FFE05A"/>
<path d="M81.8304 6.98911C82.3835 6.98911 82.8318 6.54383 82.8318 5.99455C82.8318 5.44528 82.3835 5 81.8304 5C81.2774 5 80.8291 5.44528 80.8291 5.99455C80.8291 6.54383 81.2774 6.98911 81.8304 6.98911Z" fill="#FFE05A"/>
<path d="M64.932 23.7789C65.485 23.7789 65.9333 23.3336 65.9333 22.7843C65.9333 22.2351 65.485 21.7898 64.932 21.7898C64.379 21.7898 63.9307 22.2351 63.9307 22.7843C63.9307 23.3336 64.379 23.7789 64.932 23.7789Z" fill="#FFE05A"/>
<path d="M98.7465 23.7789C99.2995 23.7789 99.7478 23.3336 99.7478 22.7843C99.7478 22.2351 99.2995 21.7898 98.7465 21.7898C98.1934 21.7898 97.7451 22.2351 97.7451 22.7843C97.7451 23.3336 98.1934 23.7789 98.7465 23.7789Z" fill="#FFE05A"/>
<path d="M69.8842 35.6512C70.4372 35.6512 70.8855 35.2059 70.8855 34.6567C70.8855 34.1074 70.4372 33.6621 69.8842 33.6621C69.3311 33.6621 68.8828 34.1074 68.8828 34.6567C68.8828 35.2059 69.3311 35.6512 69.8842 35.6512Z" fill="#FFE05A"/>
<path d="M93.7943 11.9063C94.3473 11.9063 94.7957 11.4611 94.7957 10.9118C94.7957 10.3625 94.3473 9.91724 93.7943 9.91724C93.2413 9.91724 92.793 10.3625 92.793 10.9118C92.793 11.4611 93.2413 11.9063 93.7943 11.9063Z" fill="#FFE05A"/>
<path d="M69.8842 11.9063C70.4372 11.9063 70.8855 11.4611 70.8855 10.9118C70.8855 10.3625 70.4372 9.91724 69.8842 9.91724C69.3311 9.91724 68.8828 10.3625 68.8828 10.9118C68.8828 11.4611 69.3311 11.9063 69.8842 11.9063Z" fill="#FFE05A"/>
<path d="M93.7943 35.6515C94.3473 35.6515 94.7957 35.2062 94.7957 34.6569C94.7957 34.1076 94.3473 33.6624 93.7943 33.6624C93.2413 33.6624 92.793 34.1076 92.793 34.6569C92.793 35.2062 93.2413 35.6515 93.7943 35.6515Z" fill="#FFE05A"/>
<path d="M88.2474 39.3128C88.8005 39.3128 89.2488 38.8676 89.2488 38.3183C89.2488 37.769 88.8005 37.3237 88.2474 37.3237C87.6944 37.3237 87.2461 37.769 87.2461 38.3183C87.2461 38.8676 87.6944 39.3128 88.2474 39.3128Z" fill="#FFE05A"/>
<path d="M75.4261 8.24106C75.9792 8.24106 76.4275 7.79578 76.4275 7.24651C76.4275 6.69723 75.9792 6.25195 75.4261 6.25195C74.8731 6.25195 74.4248 6.69723 74.4248 7.24651C74.4248 7.79578 74.8731 8.24106 75.4261 8.24106Z" fill="#FFE05A"/>
<path d="M66.1996 30.1478C66.7526 30.1478 67.2009 29.7025 67.2009 29.1532C67.2009 28.604 66.7526 28.1587 66.1996 28.1587C65.6466 28.1587 65.1982 28.604 65.1982 29.1532C65.1982 29.7025 65.6466 30.1478 66.1996 30.1478Z" fill="#FFE05A"/>
<path d="M97.4838 17.4134C98.0368 17.4134 98.4851 16.9681 98.4851 16.4189C98.4851 15.8696 98.0368 15.4243 97.4838 15.4243C96.9307 15.4243 96.4824 15.8696 96.4824 16.4189C96.4824 16.9681 96.9307 17.4134 97.4838 17.4134Z" fill="#FFE05A"/>
<path d="M75.3158 39.2665C75.8688 39.2665 76.3171 38.8212 76.3171 38.2719C76.3171 37.7226 75.8688 37.2773 75.3158 37.2773C74.7628 37.2773 74.3145 37.7226 74.3145 38.2719C74.3145 38.8212 74.7628 39.2665 75.3158 39.2665Z" fill="#FFE05A"/>
<path d="M88.3734 8.2916C88.9264 8.2916 89.3748 7.84632 89.3748 7.29704C89.3748 6.74777 88.9264 6.30249 88.3734 6.30249C87.8204 6.30249 87.3721 6.74777 87.3721 7.29704C87.3721 7.84632 87.8204 8.2916 88.3734 8.2916Z" fill="#FFE05A"/>
<path d="M66.2465 17.294C66.7995 17.294 67.2478 16.8488 67.2478 16.2995C67.2478 15.7502 66.7995 15.3049 66.2465 15.3049C65.6934 15.3049 65.2451 15.7502 65.2451 16.2995C65.2451 16.8488 65.6934 17.294 66.2465 17.294Z" fill="#FFE05A"/>
<path d="M97.432 30.2621C97.985 30.2621 98.4333 29.8168 98.4333 29.2675C98.4333 28.7182 97.985 28.2729 97.432 28.2729C96.879 28.2729 96.4307 28.7182 96.4307 29.2675C96.4307 29.8168 96.879 30.2621 97.432 30.2621Z" fill="#FFE05A"/>
<path d="M26.4166 66.8079H12.1172V88.4591H26.4166V66.8079Z" fill="#CDF5E8"/>
<path d="M42.5025 66.8079H28.2031V88.4591H42.5025V66.8079Z" fill="#CDF5E8"/>
<path d="M58.6373 66.8079H44.3379V88.4591H58.6373V66.8079Z" fill="#CDF5E8"/>
<path d="M74.3029 66.083H59.3203V89.1332H74.3029V66.083Z" fill="#CDF5E8"/>
<path d="M12.1172 64.7854H26.4179V49.5842L12.1172 59.2222V64.7854Z" fill="#CDF5E8"/>
<path d="M42.6728 38.6299L28.6191 48.1014V64.7861H42.3985L42.6728 38.6299Z" fill="#CDF5E8"/>
<path d="M58.1589 47.8811L44.7539 38.4785L44.5381 64.7855H58.1589V47.8811Z" fill="#CDF5E8"/>
<path d="M74.1388 59.3652L60.3555 49.4634V64.7855H74.1388V59.3652Z" fill="#CDF5E8"/>
<path d="M75.903 90.6176V88.2156L28.6253 88.4598V66.8086H42.3827L42.2293 90.6176H44.4067L44.5237 66.8086H58.1614V90.8618H60.3622V66.8086H74.1455V88.4598C74.8228 88.5209 75.903 88.4598 75.903 88.4598V58.0028L43.7502 35.1125L10.2441 58.0275V90.6922H42.6089L75.903 90.6176ZM60.3635 49.4635L74.1468 59.3666V64.7869H60.3635V49.4635ZM44.7563 38.4799L58.1614 47.8812V64.7856H44.5406L44.7563 38.4786V38.4799ZM28.624 48.1009L42.6777 38.6294L42.4035 64.7856H28.624V48.1009ZM26.4219 88.4598H12.1226V66.8086H26.4219V88.4598ZM26.4219 64.7869H12.1226V59.2223L26.4219 49.5857V64.7869Z" fill="#B8DED1"/>
<path d="M43.792 27.5881L21.4317 42.5956L17.9504 44.932L4 55.3793V97.9999L81.9815 97.9973V90.6042L10.2392 90.6921V58.0274L43.7452 35.1125L75.8993 58.0014V82.2776V88.5569V97.9973H81.9815V55.3561L43.792 27.5881Z" fill="#001276"/>
<path d="M55.3498 90.6914H53.4766V90.7551V94.7361V96.8377H55.3498V94.7673V90.6914Z" fill="#001276"/>
<path d="M78.9131 58.0154L99.1967 71.8082V96.3288H78.9131V58.0154Z" fill="#001276"/>
</svg>
