<svg xmlns="http://www.w3.org/2000/svg" viewBox="0 0 1920 1080"><defs><style>.a{font-size:96.12px;font-family:Qanelas-Medium, Qanelas;font-weight:500;}.a,.h{fill:#fff;}.b{letter-spacing:-0.02em;}.c{letter-spacing:-0.04em;}.d{letter-spacing:0em;}.e{letter-spacing:-0.02em;}.f{letter-spacing:-0.04em;}.g{letter-spacing:-0.02em;}</style></defs><text class="a" transform="translate(153.06 887.95)">LITH<tspan class="b" x="178.88" y="0">U</tspan><tspan x="236.56" y="0">ANIAN C</tspan><tspan class="c" x="601.82" y="0">R</tspan><tspan class="d" x="658.14" y="0">Y</tspan><tspan class="e" x="714.09" y="0">P</tspan><tspan class="f" x="768.4" y="0">T</tspan><tspan x="812.71" y="0">O CENTRAL </tspan><tspan class="g" x="1338.21" y="0">B</tspan><tspan x="1402.22" y="0">ANK</tspan></text><path class="h" d="M857.11,629.71Q799.93,597,768,540.53T736,415.3q0-68.76,32-125.25t89.16-89.17q57.18-32.67,128-32.67,54.42,0,102.09,21.77a228.56,228.56,0,0,1,80.65,60.92,216.31,216.31,0,0,1,45.26,89.51h-82.35q-15-43.55-55.12-69.77t-90.53-26.19q-50.4,0-89.17,22.1a155.71,155.71,0,0,0-60.24,60.93q-21.45,38.79-21.43,87.82t21.43,87.8A155.62,155.62,0,0,0,895.91,564q38.79,22.13,89.17,22.12t90.53-26.2q40.14-26.21,55.12-69.77h82.35A207.9,207.9,0,0,1,1168.16,579a235.17,235.17,0,0,1-81,61.25q-47.64,22.13-102.09,22.13-70.8,0-128-32.67"/><path class="h" d="M1738.66,490.46a180.56,180.56,0,0,0-77.17-70q21.08-34.59,21.09-72.55,0-43.83-21.09-78.88T1602,213.76q-38.4-20.25-86.49-20.25H1273.45V691.6h-773v-.35H264.25V193.51h-97V784.05H500.45v-.23h773v.23h307q52.3,0,94.91-25.33A183,183,0,0,0,1742.47,690q24.45-43.44,24.47-95.72,0-57.39-28.28-103.79M1370.45,284.62h145.09q32.07,0,51,19t19,48.52q0,27.86-18.56,48.08H1370.45Zm272.49,378.79q-27,29.54-75.08,29.52H1370.45V487.07h198.24q48.09,0,74.65,29.12T1669.92,590q0,43.85-27,73.39"/><path class="h" d="M690.46,629.71q59.06-32.69,92.1-89.18t33-125.23q0-68.76-33-125.25t-92.1-89.17q-59.07-32.67-132.19-32.67Q502,168.21,452.81,190T369.5,250.9a213.8,213.8,0,0,0-46.76,89.51h85.07q15.46-43.55,56.95-69.77t93.51-26.19q52.05,0,92.1,22.1t62.24,60.93q22.14,38.79,22.14,87.82t-22.14,87.8Q690.46,541.89,650.37,564t-92.1,22.12q-52,0-93.51-26.2t-56.95-69.77H322.74A205.4,205.4,0,0,0,369.15,579q34.46,39.13,83.66,61.25t105.46,22.13q73.13,0,132.19-32.67"/></svg>