<svg width="104" height="104" viewBox="0 0 104 104" fill="none" xmlns="http://www.w3.org/2000/svg">
<path d="M7.70336 41.6584H7.55469" stroke="#CBCACA" stroke-width="2.64" stroke-miterlimit="10"/>
<path d="M14.9898 28.8801H14.8432C13.9736 28.8801 13.2686 29.5846 13.2686 30.4537V79.2797C13.2686 80.1488 13.9736 80.8533 14.8432 80.8533H14.9898C15.8594 80.8533 16.5644 80.1488 16.5644 79.2797V30.4537C16.5644 29.5846 15.8594 28.8801 14.9898 28.8801Z" fill="#EDBFBD"/>
<path d="M21.5355 28.8801H21.3889C20.5193 28.8801 19.8143 29.5846 19.8143 30.4537V79.2797C19.8143 80.1488 20.5193 80.8533 21.3889 80.8533H21.5355C22.4052 80.8533 23.1102 80.1488 23.1102 79.2797V30.4537C23.1102 29.5846 22.4052 28.8801 21.5355 28.8801Z" fill="#EDBFBD"/>
<path d="M28.2508 28.8801H28.1043C27.2346 28.8801 26.5296 29.5846 26.5296 30.4537V79.2797C26.5296 80.1488 27.2346 80.8533 28.1043 80.8533H28.2508C29.1205 80.8533 29.8255 80.1488 29.8255 79.2797V30.4537C29.8255 29.5846 29.1205 28.8801 28.2508 28.8801Z" fill="#EDBFBD"/>
<path d="M35.14 28.8801H34.9934C34.1237 28.8801 33.4187 29.5846 33.4187 30.4537V79.2797C33.4187 80.1488 34.1237 80.8533 34.9934 80.8533H35.14C36.0096 80.8533 36.7146 80.1488 36.7146 79.2797V30.4537C36.7146 29.5846 36.0096 28.8801 35.14 28.8801Z" fill="#EDBFBD"/>
<path d="M41.6857 28.8801H41.5391C40.6695 28.8801 39.9645 29.5846 39.9645 30.4537V79.2797C39.9645 80.1488 40.6695 80.8533 41.5391 80.8533H41.6857C42.5554 80.8533 43.2604 80.1488 43.2604 79.2797V30.4537C43.2604 29.5846 42.5554 28.8801 41.6857 28.8801Z" fill="#EDBFBD"/>
<path d="M48.401 28.8801H48.2544C47.3848 28.8801 46.6798 29.5846 46.6798 30.4537V79.2797C46.6798 80.1488 47.3848 80.8533 48.2544 80.8533H48.401C49.2707 80.8533 49.9757 80.1488 49.9757 79.2797V30.4537C49.9757 29.5846 49.2707 28.8801 48.401 28.8801Z" fill="#EDBFBD"/>
<path d="M55.1184 28.8801H54.9719C54.1022 28.8801 53.3972 29.5846 53.3972 30.4537V79.2797C53.3972 80.1488 54.1022 80.8533 54.9719 80.8533H55.1184C55.9881 80.8533 56.6931 80.1488 56.6931 79.2797V30.4537C56.6931 29.5846 55.9881 28.8801 55.1184 28.8801Z" fill="#EDBFBD"/>
<path d="M29.8175 9.35467H26.4462V29.4153H29.8175V9.35467Z" fill="#E2E2E2"/>
<path d="M43.9705 9.36932H40.6286V29.43H43.9705V9.36932Z" fill="#E2E2E2"/>
<path d="M39.0749 4H31.3209C28.626 4 26.4336 5.9502 26.4336 8.34818V9.57647H29.8133V9.87151H29.7965V8.34818C29.7965 7.60117 30.4813 6.99225 31.3209 6.99225H39.0749C39.9166 6.99225 40.6014 7.60117 40.6014 8.34818V9.45929H40.6139V9.57857H43.9622V8.35028C43.9622 5.95229 41.7698 4.00209 39.0749 4.00209V4Z" fill="#515151"/>
<path d="M19.4126 93.9832H15.8654C15.4618 93.9832 15.1346 94.3101 15.1346 94.7134V99.1328C15.1346 99.5361 15.4618 99.863 15.8654 99.863H19.4126C19.8162 99.863 20.1434 99.5361 20.1434 99.1328V94.7134C20.1434 94.3101 19.8162 93.9832 19.4126 93.9832Z" fill="#004750"/>
<path d="M54.9701 93.9832H51.4229C51.0193 93.9832 50.6921 94.3101 50.6921 94.7134V99.1328C50.6921 99.5361 51.0193 99.863 51.4229 99.863H54.9701C55.3737 99.863 55.7009 99.5361 55.7009 99.1328V94.7134C55.7009 94.3101 55.3737 93.9832 54.9701 93.9832Z" fill="#004750"/>
<path d="M13.7735 23.7845H56.2391C59.2544 23.7845 61.7001 26.2306 61.7001 29.2417V90.6122C61.7001 92.6984 60.004 94.3933 57.9163 94.3933H12.3162C10.107 94.3933 8.3125 92.6 8.3125 90.3925V29.2417C8.3125 26.2285 10.7603 23.7845 13.7735 23.7845Z" fill="#FFC9C9"/>
<path d="M50.8555 94.4372H19.0336V96.2661H50.8555V94.4372Z" fill="#004750"/>
<path d="M12.6784 94.4791C10.3185 94.4791 8.40463 93.0813 8.40463 91.3571L8.39626 85.4709C8.39626 85.4709 8.11567 87.2726 9.38461 88.6264C10.7792 90.1121 12.8564 90.043 12.8564 90.043H61.7001V91.3571C61.7001 93.0813 59.7863 94.4791 57.4264 94.4791H12.6784Z" fill="#EDBFBD"/>
<path d="M15.0448 28.3629H14.8982C14.0285 28.3629 13.3235 29.0674 13.3235 29.9364V81.4827C13.3235 82.3518 14.0285 83.0563 14.8982 83.0563H15.0448C15.9144 83.0563 16.6194 82.3518 16.6194 81.4827V29.9364C16.6194 29.0674 15.9144 28.3629 15.0448 28.3629Z" fill="#EDBFBD"/>
<path d="M21.5884 28.3629H21.4418C20.5721 28.3629 19.8671 29.0674 19.8671 29.9364V81.4827C19.8671 82.3518 20.5721 83.0563 21.4418 83.0563H21.5884C22.458 83.0563 23.163 82.3518 23.163 81.4827V29.9364C23.163 29.0674 22.458 28.3629 21.5884 28.3629Z" fill="#EDBFBD"/>
<path d="M28.3058 28.3629H28.1592C27.2896 28.3629 26.5846 29.0674 26.5846 29.9364V81.4827C26.5846 82.3518 27.2896 83.0563 28.1592 83.0563H28.3058C29.1755 83.0563 29.8805 82.3518 29.8805 81.4827V29.9364C29.8805 29.0674 29.1755 28.3629 28.3058 28.3629Z" fill="#EDBFBD"/>
<path d="M35.1949 28.3629H35.0484C34.1787 28.3629 33.4737 29.0674 33.4737 29.9364V81.4827C33.4737 82.3518 34.1787 83.0563 35.0484 83.0563H35.1949C36.0646 83.0563 36.7696 82.3518 36.7696 81.4827V29.9364C36.7696 29.0674 36.0646 28.3629 35.1949 28.3629Z" fill="#EDBFBD"/>
<path d="M41.7386 28.3629H41.592C40.7223 28.3629 40.0173 29.0674 40.0173 29.9364V81.4827C40.0173 82.3518 40.7223 83.0563 41.592 83.0563H41.7386C42.6082 83.0563 43.3132 82.3518 43.3132 81.4827V29.9364C43.3132 29.0674 42.6082 28.3629 41.7386 28.3629Z" fill="#EDBFBD"/>
<path d="M48.456 28.3629H48.3094C47.4397 28.3629 46.7347 29.0674 46.7347 29.9364V81.4827C46.7347 82.3518 47.4397 83.0563 48.3094 83.0563H48.456C49.3256 83.0563 50.0306 82.3518 50.0306 81.4827V29.9364C50.0306 29.0674 49.3256 28.3629 48.456 28.3629Z" fill="#EDBFBD"/>
<path d="M55.1713 28.3629H55.0247C54.1551 28.3629 53.4501 29.0674 53.4501 29.9364V81.4827C53.4501 82.3518 54.1551 83.0563 55.0247 83.0563H55.1713C56.041 83.0563 56.746 82.3518 56.746 81.4827V29.9364C56.746 29.0674 56.041 28.3629 55.1713 28.3629Z" fill="#EDBFBD"/>
<path d="M54.9715 38.2939C54.9715 38.2939 49.9648 39.1602 49.2005 43.6423C48.7336 46.3814 48.8194 59.3904 48.8194 59.3904C48.8194 59.3904 43.8777 58.9635 41.9722 61.3845C39.696 64.2742 40.2761 70.8342 40.2761 70.8342L40.23 94.4332L57.0466 94.4521L61.6701 89.744L61.4942 38.2793L54.9736 38.296L54.9715 38.2939Z" fill="#EDBFBD"/>
<path d="M96.3949 70.2106C96.4158 70.2106 96.4305 70.2106 96.4305 70.2106C96.4305 70.2106 96.4619 68.8296 96.4346 67.7812C96.3969 66.3542 96.3069 64.4061 94.9123 63.1213C93.6664 61.9746 92.2865 61.6963 90.3119 61.6963H87.1605C87.1605 61.6963 91.1997 65.4962 91.2395 65.5339L96.3949 70.2106Z" fill="#272727"/>
<path d="M96.3948 91.5958L96.3509 70.2964C96.3509 70.2964 96.3446 70.1562 96.3341 70.1478C94.7197 68.6601 89.2398 63.6339 87.3845 61.78H54.1911C54.3523 61.78 46.5146 69.0618 45.3504 69.9177V91.5958C45.3504 91.5958 45.3713 91.5958 45.386 91.5958C45.4027 91.5958 45.4488 91.6251 45.52 91.6795C46.1817 92.1817 49.0399 94.8601 51.2972 97.0258C52.696 98.3294 53.8581 99.4364 54.1304 99.7356H87.4641C89.4261 97.7875 96.0787 91.5937 96.3613 91.5958C96.3739 91.5958 96.3823 91.5958 96.3928 91.5958H96.3948Z" fill="#007481"/>
<path d="M96.3948 91.5958C96.3948 91.5958 96.3781 91.5958 96.3634 91.5958C96.0808 91.5958 89.4282 97.7875 87.4662 99.7356C87.439 99.7628 87.4097 99.7921 87.3845 99.8172C87.3468 99.8549 87.372 99.9009 87.372 99.9009H90.314C91.0888 99.9009 91.7714 99.8569 92.3912 99.7356C93.3502 99.5473 94.1564 99.1727 94.9123 98.4759C96.0221 97.4527 96.3069 96.0089 96.3949 94.7429C96.4179 94.4186 96.4284 94.1068 96.4346 93.8159C96.4619 92.7676 96.4305 91.5958 96.4305 91.5958C96.4305 91.5958 96.4158 91.5958 96.3948 91.5958Z" fill="#272727"/>
<path d="M45.3504 91.5958C45.3336 91.5958 45.3211 91.5958 45.3211 91.5958C45.3211 91.5958 45.2917 92.7802 45.3169 93.8369C45.3336 94.5002 45.3629 95.2744 45.5221 96.0444C45.7084 96.9463 46.0728 97.8419 46.8099 98.5429C47.5511 99.2459 48.3426 99.6247 49.2828 99.8151C49.8901 99.9386 50.5601 99.9825 51.3203 99.9825H54.2057C54.2057 99.9825 54.1387 99.8967 54.1932 99.8967C54.2036 99.8967 54.1827 99.8674 54.1345 99.8151C53.8644 99.5075 52.696 98.365 51.2993 97.0237C48.9897 94.8705 46.0309 92.1775 45.3504 91.6753V91.5937L45.3504 91.5958Z" fill="#272727"/>
<path d="M45.386 91.5958C45.3713 91.5958 45.3608 91.5958 45.3504 91.5958V91.6774C46.0309 92.1775 48.9897 94.8726 51.2993 97.0258C49.042 94.8601 46.1838 92.1817 45.5221 91.6795C45.4509 91.6251 45.4048 91.5958 45.3881 91.5958L45.386 91.5958Z" fill="#272727"/>
<path d="M50.8114 61.78L54.1911 61.78C54.1387 61.78 54.2057 61.6963 54.2057 61.6963H51.2637C49.2891 61.6963 47.9092 61.9746 46.6633 63.1213C45.2687 64.4061 45.1787 66.3521 45.141 67.7812C45.1138 68.8296 45.1452 70.0014 45.1452 70.0014C45.1452 70.0014 45.1703 70.0035 45.2122 70.0035C45.2289 70.0035 45.2771 69.9742 45.3504 69.9198V67.2393C45.3504 64.224 47.7961 61.7821 50.8114 61.7821V61.78Z" fill="#272727"/>
<path d="M54.1911 61.78L50.8114 61.78C47.794 61.78 45.3504 64.224 45.3504 67.2372V69.9177C46.5146 69.0597 54.3544 61.78 54.1911 61.78Z" fill="#272727"/>
<path d="M58.0382 38.4588H80.0059C83.0212 38.4588 85.467 40.9049 85.467 43.916V58.1072C85.467 60.1934 83.7709 61.8883 81.6832 61.8883H56.5808C54.3717 61.8883 52.5771 60.0951 52.5771 57.8875V43.916C52.5771 40.9028 55.025 38.4588 58.0382 38.4588Z" fill="#0095DB"/>
<path d="M57.9503 38.5153H80.0059C83.0212 38.5153 85.467 40.9614 85.467 43.9725V55.1735C85.467 57.2598 83.7709 58.9547 81.6832 58.9547H57.0896C54.78 58.9547 52.9059 57.0819 52.9059 54.7739V43.5519C52.9059 40.771 55.1653 38.5132 57.9482 38.5132L57.9503 38.5153Z" fill="#00AEEF"/>
<path d="M74.124 38.486H72.564C72.564 36.45 71.6092 35.5816 69.3707 35.5816C67.1323 35.5816 66.1774 36.3684 66.1774 38.486H64.6174C64.6174 36.8308 65.1137 35.6193 66.0916 34.8827C66.8705 34.2968 67.9133 34.0227 69.3707 34.0227C73.299 34.0227 74.124 36.45 74.124 38.486Z" fill="#515151"/>
<path d="M32.1275 43.5904L32.1421 34.5948C32.1442 32.7179 30.624 31.1946 28.7457 31.1904L23.9547 31.182C22.0765 31.1799 20.5521 32.699 20.5479 34.576L20.5332 43.5716C20.5311 45.4486 22.0513 46.9719 23.9296 46.9761L28.7206 46.9845C30.5989 46.9865 32.1233 45.4674 32.1275 43.5904ZM26.2225 34.7999C25.7053 34.7329 25.3409 34.26 25.4079 33.7453C25.475 33.2305 25.9482 32.8644 26.4633 32.9313C26.9784 32.9983 27.3449 33.4712 27.2779 33.9859C27.2109 34.5007 26.7376 34.8669 26.2225 34.7999Z" fill="#8E8E8E"/>
<path d="M26.4005 34.4588C26.1806 34.4588 25.9775 34.3207 25.9042 34.101C25.8686 33.9922 25.8393 33.9064 25.9147 21.9813L25.9189 21.4624H29.889C30.178 21.4624 30.4125 21.6968 30.4125 21.9855C30.4125 22.2743 30.178 22.5086 29.889 22.5086H26.9596C26.9323 27.0326 26.9009 33.4084 26.9219 33.8729C26.9512 34.1136 26.8067 34.3521 26.568 34.4316C26.5136 34.4505 26.457 34.4588 26.4026 34.4588H26.4005Z" fill="#8E8E8E"/>
</svg>
