<svg width="104" height="104" viewBox="0 0 104 104" fill="none" xmlns="http://www.w3.org/2000/svg">
<path fill-rule="evenodd" clip-rule="evenodd" d="M66.9682 81.0253C79.6817 81.0253 89.9571 70.7421 89.9571 58.0952C89.9571 45.4484 79.6817 35.1652 66.9682 35.1652C54.2548 35.1652 43.9794 45.4484 43.9794 58.0952C43.9794 70.7421 54.2548 81.0253 66.9682 81.0253ZM66.9682 91.2381C85.305 91.2381 100.17 76.3995 100.17 58.0952C100.17 39.791 85.305 24.9524 66.9682 24.9524C48.6315 24.9524 33.7666 39.791 33.7666 58.0952C33.7666 76.3995 48.6315 91.2381 66.9682 91.2381Z" fill="#FFCB05"/>
<mask id="path-2-inside-1_3300_37227" fill="white">
<path d="M69.6396 26.3452C76.3436 26.6635 82.3309 29.2588 87.4634 33.5758C92.596 37.8927 101.064 47.5715 97.9691 65.3335C100.678 38.3039 79.4472 26.8108 69.6396 26.3452Z"/>
</mask>
<path d="M97.9691 65.3335L91.999 64.7352L103.88 66.3635L97.9691 65.3335ZM69.6396 26.3452L69.3551 32.3385C74.5973 32.5873 79.356 34.5968 83.6014 38.1675L87.4634 33.5758L91.3255 28.984C85.3057 23.9208 78.0898 20.7396 69.9242 20.352L69.6396 26.3452ZM87.4634 33.5758L83.6014 38.1675C87.7017 41.6163 94.6687 49.322 92.0582 64.3035L97.9691 65.3335L103.88 66.3635C107.46 45.8211 97.4904 34.1692 91.3255 28.984L87.4634 33.5758ZM97.9691 65.3335L103.939 65.9317C105.478 50.5746 100.171 39.2039 92.7795 31.6745C85.6405 24.4028 76.4949 20.6639 69.9242 20.352L69.6396 26.3452L69.3551 32.3385C72.5919 32.4921 78.9653 34.7326 84.2164 40.0812C89.2144 45.1722 93.1687 53.0628 91.999 64.7352L97.9691 65.3335Z" fill="#FFFF00" mask="url(#path-2-inside-1_3300_37227)"/>
<path d="M26.5893 12L18.502 19.619L25.1019 25.3333L31.7018 31.0476H35.9943L49.0322 19.619L40.9258 12H26.5893Z" fill="#007481"/>
<path d="M18.502 19.619L26.5835 12L33.7671 19.619H18.502Z" fill="#00395D"/>
<path d="M26.5166 12.0001L33.6777 19.6191L41.0185 12.0001H26.5166Z" fill="#007481"/>
<path d="M33.6777 19.619L41.018 12L49.0322 19.619H33.6777Z" fill="#CDF5E8"/>
<path fill-rule="evenodd" clip-rule="evenodd" d="M34.6445 81.7872C45.8826 81.7872 54.9619 72.6979 54.9619 61.5238C54.9619 50.3497 45.8826 41.2604 34.6445 41.2604C23.4064 41.2604 14.327 50.3497 14.327 61.5238C14.327 72.6979 23.4064 81.7872 34.6445 81.7872ZM34.6445 92C51.5059 92 65.1747 78.3553 65.1747 61.5238C65.1747 44.6923 51.5059 31.0476 34.6445 31.0476C17.7831 31.0476 4.11426 44.6923 4.11426 61.5238C4.11426 78.3553 17.7831 92 34.6445 92Z" fill="#D9D9D9"/>
<mask id="path-9-inside-2_3300_37227" fill="white">
<path d="M17.8097 87.1058C12.2797 83.5586 7.95151 77.5988 5.7156 71.4285C3.47969 65.2582 1.51769 52.7618 12.9044 40.1909C-2.29858 61.5237 9.71961 81.9164 17.8097 87.1058Z"/>
</mask>
<path d="M12.9044 40.1909L17.7906 43.6731L8.45754 36.1629L12.9044 40.1909ZM17.8097 87.1058L21.0492 82.0555C16.7981 79.3286 13.2178 74.5205 11.3567 69.3843L5.7156 71.4285L0.0745424 73.4726C2.68521 80.6771 7.76141 87.7886 14.5701 92.1561L17.8097 87.1058ZM5.7156 71.4285L11.3567 69.3843C9.62369 64.602 7.89797 54.6554 17.3514 44.2189L12.9044 40.1909L8.45754 36.1629C-4.86258 50.8682 -2.66432 65.9143 0.0745424 73.4726L5.7156 71.4285ZM12.9044 40.1909L8.01829 36.7088C-0.659523 48.8854 -1.71699 61.1417 0.803262 71.1652C3.23607 80.8409 9.06283 88.6234 14.5701 92.1561L17.8097 87.1058L21.0492 82.0555C18.4664 80.3988 14.2391 75.3903 12.441 68.2391C10.7304 61.4357 11.2654 52.8292 17.7906 43.6731L12.9044 40.1909Z" fill="#D9D9D9" mask="url(#path-9-inside-2_3300_37227)"/>
<mask id="path-11-inside-3_3300_37227" fill="white">
<path d="M36.7339 32.4403C43.0052 32.7382 49.0041 35.0873 53.8056 39.1254C58.6071 43.1634 66.131 52.2954 63.2363 68.9088C65.7692 43.6269 45.9085 32.8762 36.7339 32.4403Z"/>
</mask>
<path d="M63.2363 68.9088L57.2649 68.3157L69.1486 69.9337L63.2363 68.9088ZM36.7339 32.4403L36.4445 38.4323C41.4023 38.6678 46.1446 40.5249 49.9399 43.7167L53.8056 39.1254L57.6714 34.534C51.8636 29.6497 44.6081 26.8087 37.0234 26.4484L36.7339 32.4403ZM53.8056 39.1254L49.9399 43.7167C53.5638 46.7645 59.7603 53.9018 57.324 67.884L63.2363 68.9088L69.1486 69.9337C72.5018 50.6889 63.6503 39.5623 57.6714 34.534L53.8056 39.1254ZM63.2363 68.9088L69.2078 69.502C70.6587 55.0196 65.6508 44.2736 58.6602 37.1539C51.9222 30.2914 43.2782 26.7456 37.0234 26.4484L36.7339 32.4403L36.4445 38.4323C39.3643 38.571 45.2379 40.6184 50.0907 45.5607C54.6908 50.2458 58.3468 57.5161 57.2649 68.3157L63.2363 68.9088Z" fill="#E2E2E2" mask="url(#path-11-inside-3_3300_37227)"/>
</svg>
